<svg xmlns="http://www.w3.org/2000/svg" version="1.1" xmlns:xlink="http://www.w3.org/1999/xlink" xmlns:svgjs="http://svgjs.dev/svgjs" width="2000" height="1500" viewBox="0 0 2000 1500"><rect width="2000" height="1500" fill="#ffffff"></rect><g transform="matrix(0.75,0,0,0.75,249.090909090909,407.87943166292814)"><svg viewBox="0 0 396 181" data-background-color="#ffffff" preserveAspectRatio="xMidYMid meet" height="914" width="2000" xmlns="http://www.w3.org/2000/svg" xmlns:xlink="http://www.w3.org/1999/xlink"><g id="tight-bounds" transform="matrix(1,0,0,1,0.2400000000000091,-0.1661956688402455)"><svg viewBox="0 0 395.52 181.3323913376805" height="181.3323913376805" width="395.52"><g><svg viewBox="0 0 395.52 181.3323913376805" height="181.3323913376805" width="395.52"><g><svg viewBox="0 0 395.52 181.3323913376805" height="181.3323913376805" width="395.52"><g id="textblocktransform"><svg viewBox="0 0 395.52 181.3323913376805" height="181.3323913376805" width="395.52" id="textblock"><g><svg viewBox="0 0 395.52 124.07673257389702" height="124.07673257389702" width="395.52"><g transform="matrix(1,0,0,1,0,0)"><svg width="395.52" viewBox="3.3 -35.45 115.06614092987945 36.1" height="124.07673257389702" data-palette-color="#264550"><g transform="matrix(1,0,0,1,0,0)"><g><svg width="12.28754092987943" viewBox="1.78 -36.36 74.21 36.36" height="6.020307135022267" data-palette-color="#264550" id="scriptelement" x="103.53377046493972" y="-29.771553567511138"><path d="M12.91-30.02L1.78-30.02 1.78-36.36 31.64-36.36 31.64-30.02 20.51-30.02 20.51 0 12.91 0 12.91-30.02ZM36.57 0L36.57-36.36 46.06-36.36 56.07-11.93 56.5-11.93 66.51-36.36 75.99-36.36 75.99 0 68.53 0 68.53-23.67 68.23-23.67 58.82-0.18 53.74-0.18 44.33-23.76 44.03-23.76 44.03 0 36.57 0Z" opacity="1" transform="matrix(1,0,0,1,0,0)" fill="#264550" class="undefined-123" data-fill-palette-color="primary" id="tk-123"></path></svg></g></g><path d="M100.989-26.761C100.989-31.56 104.879-35.45 109.678-35.45 114.476-35.45 118.366-31.56 118.366-26.761 118.366-21.963 114.476-18.073 109.678-18.073 104.879-18.073 100.989-21.963 100.989-26.761ZM109.678-18.473C114.255-18.473 117.966-22.184 117.966-26.761 117.966-31.339 114.255-35.05 109.678-35.05 105.1-35.05 101.389-31.339 101.389-26.761 101.389-22.184 105.1-18.473 109.678-18.473Z" fill="#264550" id="scriptcircle" data-fill-palette-color="primary"></path><path d="M15.7 0.65L15.7 0.65Q12.28 0.65 9.46-0.54 6.65-1.73 4.98-4.59 3.3-7.45 3.3-12.45L3.3-12.45 3.3-34.85 9.8-34.85 9.8-11.75Q9.8-8.8 10.76-7.31 11.73-5.83 13.08-5.31 14.43-4.8 15.6-4.8L15.6-4.8Q16.82-4.8 18.14-5.3 19.45-5.8 20.35-7.29 21.25-8.78 21.25-11.75L21.25-11.75 21.25-34.85 27.75-34.85 27.75-12.45Q27.75-7.45 26.13-4.59 24.5-1.73 21.76-0.54 19.03 0.65 15.7 0.65ZM41.5 0L35.1 0 35.1-34.85 41.5-34.85 41.5 0ZM59.2 0L49.75 0 49.75-34.85 59.05-34.85Q65.2-34.85 68-32.41 70.8-29.98 70.8-25.55L70.8-25.55Q70.8-23.58 69.84-21.53 68.9-19.48 66.72-18.45L66.72-18.45Q69.7-17.73 71.12-15.55 72.55-13.38 72.55-10.05L72.55-10.05Q72.55-5.45 69.4-2.73 66.25 0 59.2 0L59.2 0ZM59.05-29.9L59.05-29.9 56.05-29.9 56.05-20.25 60.09-20.25Q61.8-20.25 62.78-21.06 63.77-21.88 64.18-23.06 64.59-24.25 64.59-25.35L64.59-25.35Q64.59-27.15 63.81-28.14 63.02-29.13 61.75-29.51 60.47-29.9 59.05-29.9ZM59.59-15.6L59.59-15.6 56.05-15.6 56.05-5.05 59.9-5.05Q61.4-5.05 62.78-5.45 64.17-5.85 65.06-7 65.95-8.15 65.95-10.4L65.95-10.4Q65.95-12.68 65.01-13.79 64.07-14.9 62.61-15.25 61.15-15.6 59.59-15.6ZM86.64 0.55L86.64 0.55Q82.97 0.55 80.22-0.68 77.47-1.9 76.19-3.25L76.19-3.25 78.74-8.5Q79.27-7.83 80.41-6.98 81.54-6.13 83.06-5.49 84.57-4.85 86.19-4.85L86.19-4.85Q88.07-4.85 89.46-5.9 90.84-6.95 90.84-9L90.84-9Q90.84-11.03 89.41-12.21 87.97-13.4 85.49-14.9L85.49-14.9Q83.47-16.13 81.52-17.51 79.57-18.9 78.28-20.91 76.99-22.93 76.99-26L76.99-26Q76.99-30.13 79.63-32.79 82.27-35.45 87.29-35.45L87.29-35.45Q89.84-35.45 91.63-34.85 93.42-34.25 94.53-33.48 95.64-32.7 96.19-32.2L96.19-32.2 93.39-27.1Q93.04-27.6 92.22-28.33 91.39-29.05 90.19-29.6 88.99-30.15 87.54-30.15L87.54-30.15Q85.52-30.15 84.51-28.99 83.49-27.83 83.49-26.25L83.49-26.25Q83.49-24.23 84.98-22.95 86.47-21.68 88.59-20.4L88.59-20.4Q90.94-19 92.94-17.59 94.94-16.18 96.17-14.21 97.39-12.25 97.39-9.2L97.39-9.2Q97.39-4.63 94.52-2.04 91.64 0.55 86.64 0.55Z" opacity="1" transform="matrix(1,0,0,1,0,0)" fill="#264550" class="wordmark-text-0" data-fill-palette-color="primary" id="text-0"></path></svg></g></svg></g><g transform="matrix(1,0,0,1,0,153.36827129301233)"><svg viewBox="0 0 314.67772757142984 27.964120044668157" height="27.964120044668157" width="314.67772757142984"><g transform="matrix(1,0,0,1,0,0)"><svg width="314.67772757142984" viewBox="-0.7 -37.1 532.13 47.25" height="27.964120044668157" data-palette-color="#3e711a"><path d="M20.4-26.1L9.45 0.2Q8.05 3.6 6.75 5.45 5.45 7.3 3.8 8.3 2.15 9.3-0.6 10.05L-0.6 10.05-0.7 8.35Q1.55 7.65 2.9 6.73 4.25 5.8 5.25 4.28 6.25 2.75 7.35 0L7.35 0 6.4 0 2.7-26.1 5.05-26.1 8.2-1.7 18.05-26.1 20.4-26.1ZM29.05 0.55Q25.55 0.55 23.65-1.98 21.75-4.5 21.75-8.9L21.75-8.9Q21.75-12.9 22.95-16.98 24.15-21.05 26.77-23.83 29.4-26.6 33.3-26.6L33.3-26.6Q36.8-26.6 38.67-24.1 40.55-21.6 40.55-17.2L40.55-17.2Q40.55-13.2 39.35-9.1 38.15-5 35.55-2.23 32.95 0.55 29.05 0.55L29.05 0.55ZM29.1-1.45Q32.3-1.45 34.35-4.03 36.4-6.6 37.32-10.28 38.25-13.95 38.25-17.35L38.25-17.35Q38.25-20.95 36.97-22.83 35.7-24.7 33.25-24.7L33.25-24.7Q30.05-24.7 27.97-22.13 25.9-19.55 25-15.88 24.1-12.2 24.1-8.75L24.1-8.75Q24.1-5.15 25.37-3.3 26.65-1.45 29.1-1.45L29.1-1.45ZM51.05 0.55Q48.7 0.55 47.37-0.98 46.05-2.5 46.05-5.25L46.05-5.25Q46.05-6.35 46.15-6.95L46.15-6.95 48.85-26.1 51.1-26.1 48.4-6.85Q48.25-5.95 48.25-5.2L48.25-5.2Q48.25-3.3 49.05-2.35 49.85-1.4 51.3-1.4L51.3-1.4Q55.75-1.4 59.45-9.95L59.45-9.95 61.75-26.1 63.95-26.1 60.25 0 58.45 0 59.2-6.6Q57.6-3.3 55.65-1.38 53.7 0.55 51.05 0.55L51.05 0.55ZM81.04-26.6Q81.89-26.6 83.04-26.25L83.04-26.25 82.34-24.2Q81.44-24.5 80.64-24.5L80.64-24.5Q78.34-24.5 76.67-22.2 74.99-19.9 73.39-15.3L73.39-15.3 71.24 0 68.99 0 72.69-26.1 74.64-26.1 73.89-19.85Q75.19-23.15 76.89-24.88 78.59-26.6 81.04-26.6L81.04-26.6ZM107.14-35.15Q105.24-35.15 104.09-34.02 102.94-32.9 102.59-30.45L102.59-30.45 101.99-26.1 107.74-26.1 107.14-24.2 101.74-24.2 98.39-0.25Q97.94 2.9 97.09 4.75 96.24 6.6 94.94 7.7 93.64 8.8 91.39 10L91.39 10 90.79 8.35Q92.54 7.4 93.51 6.48 94.49 5.55 95.16 3.98 95.84 2.4 96.19-0.35L96.19-0.35 99.49-24.2 95.84-24.2 96.09-26.1 99.74-26.1 100.39-30.65Q100.84-33.7 102.59-35.38 104.34-37.05 107.04-37.05L107.04-37.05Q109.49-37.05 111.94-35.3L111.94-35.3 110.99-33.8Q109.89-34.5 109.01-34.83 108.14-35.15 107.14-35.15L107.14-35.15ZM112.19-26.1L114.44-26.1 110.74 0 108.49 0 112.19-26.1ZM114.39-33.75Q113.74-33.75 113.31-34.18 112.89-34.6 112.89-35.25L112.89-35.25Q112.89-36.05 113.41-36.58 113.94-37.1 114.74-37.1L114.74-37.1Q115.39-37.1 115.81-36.7 116.24-36.3 116.24-35.65L116.24-35.65Q116.24-34.85 115.71-34.3 115.19-33.75 114.39-33.75L114.39-33.75ZM132.63-26.6Q134.98-26.6 136.31-25.05 137.63-23.5 137.63-20.7L137.63-20.7Q137.63-19.85 137.48-18.85L137.48-18.85 134.83 0 132.58 0 135.23-18.75Q135.38-19.8 135.38-20.6L135.38-20.6Q135.38-22.65 134.58-23.68 133.78-24.7 132.28-24.7L132.28-24.7Q128.28-24.7 123.98-16.05L123.98-16.05 121.73 0 119.48 0 123.18-26.1 125.13-26.1 124.38-19.65Q126.23-23 128.21-24.8 130.18-26.6 132.63-26.6L132.63-26.6ZM155.18-26.6Q158.58-26.6 161.63-24.75L161.63-24.75 158.88-5.6Q158.68-4.35 158.68-3.25L158.68-3.25Q158.68-2.45 158.93-1.95 159.18-1.45 159.83-1.1L159.83-1.1 159.08 0.55Q157.83 0.05 157.21-0.8 156.58-1.65 156.58-3.2L156.58-3.2Q156.58-3.7 156.63-4L156.63-4Q153.68 0.55 149.68 0.55L149.68 0.55Q146.58 0.55 144.83-1.85 143.08-4.25 143.08-8.5L143.08-8.5Q143.08-12.8 144.36-16.98 145.63-21.15 148.36-23.88 151.08-26.6 155.18-26.6L155.18-26.6ZM155.13-24.75Q151.88-24.75 149.68-22.3 147.48-19.85 146.43-16.1 145.38-12.35 145.38-8.5L145.38-8.5Q145.38-5.05 146.56-3.25 147.73-1.45 149.98-1.45L149.98-1.45Q153.63-1.45 156.78-6.8L156.78-6.8 159.18-23.75Q157.28-24.75 155.13-24.75L155.13-24.75ZM179.93-26.6Q182.28-26.6 183.6-25.05 184.93-23.5 184.93-20.7L184.93-20.7Q184.93-19.85 184.78-18.85L184.78-18.85 182.13 0 179.88 0 182.53-18.75Q182.68-19.8 182.68-20.6L182.68-20.6Q182.68-22.65 181.88-23.68 181.08-24.7 179.58-24.7L179.58-24.7Q175.58-24.7 171.28-16.05L171.28-16.05 169.03 0 166.78 0 170.48-26.1 172.43-26.1 171.68-19.65Q173.53-23 175.5-24.8 177.48-26.6 179.93-26.6L179.93-26.6ZM202.03-26.6Q203.83-26.6 205.15-25.98 206.48-25.35 207.73-24L207.73-24 206.38-22.65Q205.38-23.65 204.38-24.15 203.38-24.65 201.98-24.65L201.98-24.65Q198.83-24.65 196.75-22.2 194.68-19.75 193.73-16.13 192.78-12.5 192.78-8.85L192.78-8.85Q192.78-5.2 194.1-3.35 195.43-1.5 197.83-1.5L197.83-1.5Q199.28-1.5 200.53-2.05 201.78-2.6 203.18-3.65L203.18-3.65 204.18-2.15Q200.98 0.55 197.73 0.55L197.73 0.55Q194.33 0.55 192.38-1.93 190.43-4.4 190.43-8.9L190.43-8.9Q190.43-13.05 191.68-17.13 192.93-21.2 195.55-23.9 198.18-26.6 202.03-26.6L202.03-26.6ZM213.52-26.1L215.77-26.1 212.07 0 209.82 0 213.52-26.1ZM215.72-33.75Q215.07-33.75 214.65-34.18 214.22-34.6 214.22-35.25L214.22-35.25Q214.22-36.05 214.75-36.58 215.27-37.1 216.07-37.1L216.07-37.1Q216.72-37.1 217.15-36.7 217.57-36.3 217.57-35.65L217.57-35.65Q217.57-34.85 217.05-34.3 216.52-33.75 215.72-33.75L215.72-33.75ZM232.67-26.6Q236.07-26.6 239.12-24.75L239.12-24.75 236.37-5.6Q236.17-4.35 236.17-3.25L236.17-3.25Q236.17-2.45 236.42-1.95 236.67-1.45 237.32-1.1L237.32-1.1 236.57 0.55Q235.32 0.05 234.7-0.8 234.07-1.65 234.07-3.2L234.07-3.2Q234.07-3.7 234.12-4L234.12-4Q231.17 0.55 227.17 0.55L227.17 0.55Q224.07 0.55 222.32-1.85 220.57-4.25 220.57-8.5L220.57-8.5Q220.57-12.8 221.85-16.98 223.12-21.15 225.85-23.88 228.57-26.6 232.67-26.6L232.67-26.6ZM232.62-24.75Q229.37-24.75 227.17-22.3 224.97-19.85 223.92-16.1 222.87-12.35 222.87-8.5L222.87-8.5Q222.87-5.05 224.05-3.25 225.22-1.45 227.47-1.45L227.47-1.45Q231.12-1.45 234.27-6.8L234.27-6.8 236.67-23.75Q234.77-24.75 232.62-24.75L232.62-24.75ZM251.47-37.05L246.82-3.8Q246.77-3.55 246.77-3.15L246.77-3.15Q246.77-1.45 248.22-1.45L248.22-1.45Q248.82-1.45 249.77-1.8L249.77-1.8 250.27-0.1Q248.97 0.55 247.72 0.55L247.72 0.55Q246.27 0.55 245.42-0.33 244.57-1.2 244.57-2.9L244.57-2.9Q244.57-3.5 244.62-3.85L244.62-3.85 249.22-36.75 251.47-37.05ZM265.81 10.15L270.91-26.1 272.91-26.1 272.56-22.5Q275.76-26.6 279.76-26.6L279.76-26.6Q282.76-26.6 284.39-24.38 286.01-22.15 286.01-18.05L286.01-18.05Q286.01-13.65 284.84-9.4 283.66-5.15 281.04-2.3 278.41 0.55 274.36 0.55L274.36 0.55Q272.01 0.55 269.56-0.6L269.56-0.6 268.06 9.85 265.81 10.15ZM274.41-1.45Q277.76-1.45 279.84-4.1 281.91-6.75 282.84-10.6 283.76-14.45 283.76-18.3L283.76-18.3Q283.76-21.5 282.66-23.08 281.56-24.65 279.46-24.65L279.46-24.65Q277.51-24.65 275.66-23.4 273.81-22.15 272.31-20.05L272.31-20.05 269.86-2.5Q272.16-1.45 274.41-1.45L274.41-1.45ZM302.61-26.6Q306.01-26.6 309.06-24.75L309.06-24.75 306.31-5.6Q306.11-4.35 306.11-3.25L306.11-3.25Q306.11-2.45 306.36-1.95 306.61-1.45 307.26-1.1L307.26-1.1 306.51 0.55Q305.26 0.05 304.64-0.8 304.01-1.65 304.01-3.2L304.01-3.2Q304.01-3.7 304.06-4L304.06-4Q301.11 0.55 297.11 0.55L297.11 0.55Q294.01 0.55 292.26-1.85 290.51-4.25 290.51-8.5L290.51-8.5Q290.51-12.8 291.79-16.98 293.06-21.15 295.79-23.88 298.51-26.6 302.61-26.6L302.61-26.6ZM302.56-24.75Q299.31-24.75 297.11-22.3 294.91-19.85 293.86-16.1 292.81-12.35 292.81-8.5L292.81-8.5Q292.81-5.05 293.99-3.25 295.16-1.45 297.41-1.45L297.41-1.45Q301.06-1.45 304.21-6.8L304.21-6.8 306.61-23.75Q304.71-24.75 302.56-24.75L302.56-24.75ZM326.26-26.6Q327.11-26.6 328.26-26.25L328.26-26.25 327.56-24.2Q326.66-24.5 325.86-24.5L325.86-24.5Q323.56-24.5 321.88-22.2 320.21-19.9 318.61-15.3L318.61-15.3 316.46 0 314.21 0 317.91-26.1 319.86-26.1 319.11-19.85Q320.41-23.15 322.11-24.88 323.81-26.6 326.26-26.6L326.26-26.6ZM335.16-24.2L332.51-5.5Q332.41-4.7 332.41-4.4L332.41-4.4Q332.41-2.9 333.08-2.18 333.76-1.45 334.96-1.45L334.96-1.45Q335.91-1.45 336.71-1.75 337.51-2.05 338.56-2.6L338.56-2.6 339.36-1.05Q337.11 0.55 334.71 0.55L334.71 0.55Q332.61 0.55 331.38-0.75 330.16-2.05 330.16-4.4L330.16-4.4Q330.16-4.7 330.26-5.6L330.26-5.6 332.91-24.2 329.31-24.2 329.61-26.1 333.21-26.1 334.51-32.5 336.36-32.7 335.41-26.1 340.96-26.1 340.41-24.2 335.16-24.2ZM356.55-26.6Q358.9-26.6 360.23-25.05 361.55-23.5 361.55-20.7L361.55-20.7Q361.55-19.85 361.4-18.85L361.4-18.85 358.75 0 356.5 0 359.15-18.75Q359.3-19.8 359.3-20.6L359.3-20.6Q359.3-22.65 358.5-23.68 357.7-24.7 356.2-24.7L356.2-24.7Q352.2-24.7 347.9-16.05L347.9-16.05 345.65 0 343.4 0 347.1-26.1 349.05-26.1 348.3-19.65Q350.15-23 352.13-24.8 354.1-26.6 356.55-26.6L356.55-26.6ZM385.05-20.75Q385.05-11.75 369.45-10.5L369.45-10.5Q369.4-9.95 369.4-8.9L369.4-8.9Q369.4-5.1 370.73-3.3 372.05-1.5 374.45-1.5L374.45-1.5Q376.1-1.5 377.55-2.13 379-2.75 380.65-4.05L380.65-4.05 381.7-2.55Q379.9-1 378.1-0.23 376.3 0.55 374.3 0.55L374.3 0.55Q370.85 0.55 368.95-1.9 367.05-4.35 367.05-8.85L367.05-8.85Q367.05-13.25 368.38-17.32 369.7-21.4 372.38-24 375.05-26.6 378.85-26.6L378.85-26.6Q381.8-26.6 383.43-25 385.05-23.4 385.05-20.75L385.05-20.75ZM378.65-24.7Q374.85-24.7 372.55-21.08 370.25-17.45 369.6-12.25L369.6-12.25Q376.2-12.85 379.5-14.9 382.8-16.95 382.8-20.7L382.8-20.7Q382.8-22.6 381.78-23.65 380.75-24.7 378.65-24.7L378.65-24.7ZM400.7-26.6Q401.55-26.6 402.7-26.25L402.7-26.25 402-24.2Q401.1-24.5 400.3-24.5L400.3-24.5Q398-24.5 396.32-22.2 394.65-19.9 393.05-15.3L393.05-15.3 390.9 0 388.65 0 392.35-26.1 394.3-26.1 393.55-19.85Q394.85-23.15 396.55-24.88 398.25-26.6 400.7-26.6L400.7-26.6ZM426.79-35.15Q424.89-35.15 423.74-34.02 422.59-32.9 422.24-30.45L422.24-30.45 421.64-26.1 427.39-26.1 426.79-24.2 421.39-24.2 418.04-0.25Q417.59 2.9 416.74 4.75 415.89 6.6 414.59 7.7 413.29 8.8 411.04 10L411.04 10 410.44 8.35Q412.19 7.4 413.17 6.48 414.14 5.55 414.82 3.98 415.49 2.4 415.84-0.35L415.84-0.35 419.14-24.2 415.49-24.2 415.74-26.1 419.39-26.1 420.04-30.65Q420.49-33.7 422.24-35.38 423.99-37.05 426.69-37.05L426.69-37.05Q429.14-37.05 431.59-35.3L431.59-35.3 430.64-33.8Q429.54-34.5 428.67-34.83 427.79-35.15 426.79-35.15L426.79-35.15ZM435.24 0.55Q431.74 0.55 429.84-1.98 427.94-4.5 427.94-8.9L427.94-8.9Q427.94-12.9 429.14-16.98 430.34-21.05 432.97-23.83 435.59-26.6 439.49-26.6L439.49-26.6Q442.99-26.6 444.87-24.1 446.74-21.6 446.74-17.2L446.74-17.2Q446.74-13.2 445.54-9.1 444.34-5 441.74-2.23 439.14 0.55 435.24 0.55L435.24 0.55ZM435.29-1.45Q438.49-1.45 440.54-4.03 442.59-6.6 443.52-10.28 444.44-13.95 444.44-17.35L444.44-17.35Q444.44-20.95 443.17-22.83 441.89-24.7 439.44-24.7L439.44-24.7Q436.24-24.7 434.17-22.13 432.09-19.55 431.19-15.88 430.29-12.2 430.29-8.75L430.29-8.75Q430.29-5.15 431.57-3.3 432.84-1.45 435.29-1.45L435.29-1.45ZM463.59-26.6Q464.44-26.6 465.59-26.25L465.59-26.25 464.89-24.2Q463.99-24.5 463.19-24.5L463.19-24.5Q460.89-24.5 459.21-22.2 457.54-19.9 455.94-15.3L455.94-15.3 453.79 0 451.54 0 455.24-26.1 457.19-26.1 456.44-19.85Q457.74-23.15 459.44-24.88 461.14-26.6 463.59-26.6L463.59-26.6ZM485.28-37.05L480.63-3.8Q480.58-3.55 480.58-3.15L480.58-3.15Q480.58-1.45 482.03-1.45L482.03-1.45Q482.63-1.45 483.58-1.8L483.58-1.8 484.08-0.1Q482.78 0.55 481.53 0.55L481.53 0.55Q480.08 0.55 479.23-0.33 478.38-1.2 478.38-2.9L478.38-2.9Q478.38-3.5 478.43-3.85L478.43-3.85 483.03-36.75 485.28-37.05ZM493.38-26.1L495.63-26.1 491.93 0 489.68 0 493.38-26.1ZM495.58-33.75Q494.93-33.75 494.51-34.18 494.08-34.6 494.08-35.25L494.08-35.25Q494.08-36.05 494.61-36.58 495.13-37.1 495.93-37.1L495.93-37.1Q496.58-37.1 497.01-36.7 497.43-36.3 497.43-35.65L497.43-35.65Q497.43-34.85 496.91-34.3 496.38-33.75 495.58-33.75L495.58-33.75ZM512.28-35.15Q510.38-35.15 509.23-34.02 508.08-32.9 507.73-30.45L507.73-30.45 507.13-26.1 512.88-26.1 512.28-24.2 506.88-24.2 503.53-0.25Q503.08 2.9 502.23 4.75 501.38 6.6 500.08 7.7 498.78 8.8 496.53 10L496.53 10 495.93 8.35Q497.68 7.4 498.65 6.48 499.63 5.55 500.3 3.98 500.98 2.4 501.33-0.35L501.33-0.35 504.63-24.2 500.98-24.2 501.23-26.1 504.88-26.1 505.53-30.65Q505.98-33.7 507.73-35.38 509.48-37.05 512.18-37.05L512.18-37.05Q514.63-37.05 517.08-35.3L517.08-35.3 516.13-33.8Q515.03-34.5 514.15-34.83 513.28-35.15 512.28-35.15L512.28-35.15ZM531.43-20.75Q531.43-11.75 515.83-10.5L515.83-10.5Q515.78-9.95 515.78-8.9L515.78-8.9Q515.78-5.1 517.1-3.3 518.43-1.5 520.83-1.5L520.83-1.5Q522.48-1.5 523.93-2.13 525.38-2.75 527.03-4.05L527.03-4.05 528.08-2.55Q526.28-1 524.48-0.23 522.68 0.55 520.68 0.55L520.68 0.55Q517.23 0.55 515.33-1.9 513.43-4.35 513.43-8.85L513.43-8.85Q513.43-13.25 514.75-17.32 516.08-21.4 518.75-24 521.43-26.6 525.23-26.6L525.23-26.6Q528.18-26.6 529.8-25 531.43-23.4 531.43-20.75L531.43-20.75ZM525.03-24.7Q521.23-24.7 518.93-21.08 516.63-17.45 515.98-12.25L515.98-12.25Q522.58-12.85 525.88-14.9 529.18-16.95 529.18-20.7L529.18-20.7Q529.18-22.6 528.15-23.65 527.13-24.7 525.03-24.7L525.03-24.7Z" opacity="1" transform="matrix(1,0,0,1,0,0)" fill="#3e711a" class="slogan-text-1" data-fill-palette-color="secondary" id="text-1"></path></svg></g></svg></g></svg></g></svg></g><g></g></svg></g><defs></defs></svg><rect width="395.52" height="181.3323913376805" fill="none" stroke="none" visibility="hidden"></rect></g></svg></g></svg>