<svg xmlns="http://www.w3.org/2000/svg" version="1.1" xmlns:xlink="http://www.w3.org/1999/xlink" xmlns:svgjs="http://svgjs.dev/svgjs" width="2000" height="1500" viewBox="0 0 2000 1500"><rect width="2000" height="1500" fill="#ffffff"></rect><g transform="matrix(0.75,0,0,0.75,249.0911850682062,492.4741597356034)"><svg viewBox="0 0 396 136" data-background-color="#ffffff" preserveAspectRatio="xMidYMid meet" height="686" width="2000" xmlns="http://www.w3.org/2000/svg" xmlns:xlink="http://www.w3.org/1999/xlink"><g id="tight-bounds" transform="matrix(1,0,0,1,0.2399271419935758,0.07291404462185369)"><svg viewBox="0 0 395.52 135.8541719107563" height="135.8541719107563" width="395.52"><g><svg viewBox="0 0 395.52 135.8541719107563" height="135.8541719107563" width="395.52"><g><svg viewBox="0 0 395.52 135.8541719107563" height="135.8541719107563" width="395.52"><g id="textblocktransform"><svg viewBox="0 0 395.52 135.8541719107563" height="135.8541719107563" width="395.52" id="textblock"><g><svg viewBox="0 0 395.52 91.11150062824181" height="91.11150062824181" width="395.52"><g transform="matrix(1,0,0,1,0,0)"><svg width="395.52" viewBox="1.51 -29.1 128.76095256236692 29.66" height="91.11150062824181" data-palette-color="#367d94"><g transform="matrix(1,0,0,1,0,0)"><g><svg width="10.216672562366945" viewBox="1.78 -36.36 74.21 36.36" height="5.005680719552035" data-palette-color="#367d94" id="scriptelement" x="117.93833628118347" y="-24.378560359776017"><path d="M12.91-30.02L1.78-30.02 1.78-36.36 31.64-36.36 31.64-30.02 20.51-30.02 20.51 0 12.91 0 12.91-30.02ZM36.57 0L36.57-36.36 46.06-36.36 56.07-11.93 56.5-11.93 66.51-36.36 75.99-36.36 75.99 0 68.53 0 68.53-23.67 68.23-23.67 58.82-0.18 53.74-0.18 44.33-23.76 44.03-23.76 44.03 0 36.57 0Z" opacity="1" transform="matrix(1,0,0,1,0,0)" fill="#367d94" class="undefined-123" data-fill-palette-color="primary" id="tk-123"></path></svg></g></g><path d="M115.822-21.876C115.822-25.866 119.057-29.1 123.047-29.1 127.037-29.1 130.271-25.866 130.271-21.876 130.271-17.886 127.037-14.651 123.047-14.651 119.057-14.651 115.822-17.886 115.822-21.876ZM123.047-15.051C126.816-15.051 129.871-18.107 129.871-21.876 129.871-25.645 126.816-28.7 123.047-28.7 119.278-28.7 116.222-25.645 116.222-21.876 116.222-18.107 119.278-15.051 123.047-15.051Z" fill="#367d94" id="scriptcircle" data-fill-palette-color="primary"></path><path d="M18.9 0.56L18.9 0.56Q12.87 0.56 9.73-3.13 6.59-6.81 6.59-13.84L6.59-13.84 6.59-24.34Q6.59-25.76 6.23-26.46 5.86-27.17 4.77-27.44 3.69-27.71 1.51-27.81L1.51-27.81 1.51-28.54Q2.51-28.49 4.25-28.45 5.98-28.42 8.42-28.42L8.42-28.42Q11.01-28.42 12.81-28.45 14.6-28.49 15.5-28.54L15.5-28.54 15.5-27.81Q13.31-27.71 12.19-27.45 11.08-27.2 10.72-26.5 10.35-25.81 10.35-24.34L10.35-24.34 10.35-12.84Q10.35-7.3 12.73-3.99 15.11-0.68 19.68-0.68L19.68-0.68Q24.85-0.68 27.58-4.05 30.3-7.42 30.3-13.72L30.3-13.72 30.3-23.88Q30.3-25.44 29.83-26.25 29.37-27.05 28.21-27.38 27.05-27.71 24.93-27.81L24.93-27.81 24.93-28.54Q25.66-28.52 27.08-28.47 28.49-28.42 30.57-28.42L30.57-28.42Q32.74-28.42 34.12-28.47 35.5-28.52 36.18-28.54L36.18-28.54 36.18-27.81Q34.11-27.71 33-27.39 31.88-27.08 31.48-26.29 31.08-25.51 31.08-24.02L31.08-24.02 31.08-14.09Q31.08-7.01 28.02-3.22 24.95 0.56 18.9 0.56ZM39.87 0L39.87 0 39.87-0.76Q41.99-0.85 43.03-1.12 44.06-1.39 44.41-2.11 44.75-2.83 44.75-4.22L44.75-4.22 44.75-24.34Q44.75-25.76 44.41-26.46 44.06-27.17 43.03-27.44 41.99-27.71 39.87-27.81L39.87-27.81 39.87-28.54Q40.92-28.49 42.65-28.45 44.38-28.42 46.6-28.42L46.6-28.42Q48.73-28.42 50.55-28.45 52.37-28.49 53.44-28.54L53.44-28.54 53.44-27.81Q51.32-27.71 50.27-27.44 49.22-27.17 48.87-26.46 48.53-25.76 48.53-24.34L48.53-24.34 48.53-4.22Q48.53-2.81 48.87-2.1 49.22-1.39 50.27-1.12 51.32-0.85 53.44-0.76L53.44-0.76 53.44 0Q52.37-0.05 50.55-0.09 48.73-0.12 46.6-0.12L46.6-0.12Q44.38-0.12 42.65-0.09 40.92-0.05 39.87 0ZM57.98 0L57.98 0 57.98-0.76Q60.25-0.83 61.36-1.11 62.47-1.39 62.84-2.12 63.2-2.86 63.2-4.22L63.2-4.22 63.2-24.34Q63.2-25.76 62.84-26.46 62.47-27.17 61.36-27.45 60.25-27.73 57.98-27.81L57.98-27.81 57.98-28.54Q59.03-28.52 60.76-28.5 62.5-28.49 64.86-28.49L64.86-28.49Q66.43-28.49 68.07-28.5 69.72-28.52 71.05-28.53 72.38-28.54 72.99-28.54L72.99-28.54Q78.17-28.54 81.06-26.84 83.95-25.15 83.95-22.05L83.95-22.05Q83.95-19.09 81.79-17.53 79.63-15.97 74.78-15.01L74.78-15.01 74.78-14.97Q86.88-14.6 86.88-7.86L86.88-7.86Q86.88-4.15 83.47-2.08 80.05 0 73.97 0L73.97 0Q72.72 0 70.15-0.06 67.57-0.12 64.81-0.12L64.81-0.12Q62.4-0.12 60.66-0.1 58.93-0.07 57.98 0ZM71.63-27.76L71.63-27.76 66.99-27.73 66.99-15.19 71.58-15.19Q75.73-15.19 77.88-16.85 80.02-18.51 80.02-21.63L80.02-21.63Q80.02-24.85 78.01-26.29 76-27.73 71.63-27.76ZM71.58-0.88L71.58-0.88Q82.83-0.88 82.83-8.03L82.83-8.03Q82.83-14.45 73.31-14.45L73.31-14.45 66.99-14.45 66.99-4.05Q66.99-2.71 67.32-2.03 67.65-1.34 68.64-1.11 69.62-0.88 71.58-0.88ZM102.97 0.56L102.97 0.56Q100.46 0.56 98.78-0.11 97.11-0.78 96.01-1.45 94.91-2.12 94.13-2.12L94.13-2.12Q93.47-2.12 93.08-1.57 92.69-1.03 92.45 0.46L92.45 0.46 91.69 0.46Q91.81-0.71 91.85-3.22 91.89-5.74 91.89-10.13L91.89-10.13 92.67-10.13Q93.08-5.35 95.67-2.75 98.26-0.15 102.39-0.15L102.39-0.15Q105.56-0.15 107.34-1.66 109.12-3.17 109.12-6.13L109.12-6.13Q109.12-7.89 108.42-8.98 107.71-10.08 106.07-10.97 104.44-11.87 101.63-12.94L101.63-12.94Q98.28-14.28 96.23-15.48 94.18-16.67 93.25-18.09 92.33-19.51 92.33-21.48L92.33-21.48Q92.33-24.98 94.72-27.04 97.11-29.1 101.16-29.1L101.16-29.1Q103.31-29.1 104.74-28.64 106.17-28.17 107.17-27.71 108.17-27.25 109.05-27.25L109.05-27.25Q109.71-27.25 110.11-27.56 110.51-27.88 110.76-29L110.76-29 111.54-29Q111.47-28.1 111.41-26.98 111.35-25.85 111.32-24.15 111.3-22.44 111.3-19.73L111.3-19.73 110.54-19.73Q110.1-23.9 107.73-26.14 105.36-28.37 101.68-28.37L101.68-28.37Q98.8-28.37 97.14-26.99 95.48-25.61 95.48-22.95L95.48-22.95Q95.48-21.46 96.24-20.39 97.01-19.31 98.83-18.37 100.65-17.43 103.75-16.33L103.75-16.33Q108.68-14.65 110.76-12.68 112.83-10.72 112.83-7.62L112.83-7.62Q112.83-3.83 110.19-1.64 107.54 0.56 102.97 0.56Z" opacity="1" transform="matrix(1,0,0,1,0,0)" fill="#367d94" class="wordmark-text-0" data-fill-palette-color="primary" id="text-0"></path></svg></g></svg></g><g transform="matrix(1,0,0,1,0,112.62073925055464)"><svg viewBox="0 0 335.45012429251466 23.233432660201665" height="23.233432660201665" width="335.45012429251466"><g transform="matrix(1,0,0,1,0,0)"><svg width="335.45012429251466" viewBox="-0.7 -37.1 682.6600000000001 47.25" height="23.233432660201665" data-palette-color="#5dab25"><path d="M20.4-26.1L9.45 0.2Q8.05 3.6 6.75 5.45 5.45 7.3 3.8 8.3 2.15 9.3-0.6 10.05L-0.6 10.05-0.7 8.35Q1.55 7.65 2.9 6.73 4.25 5.8 5.25 4.28 6.25 2.75 7.35 0L7.35 0 6.4 0 2.7-26.1 5.05-26.1 8.2-1.7 18.05-26.1 20.4-26.1ZM34.07 0.55Q30.57 0.55 28.67-1.98 26.77-4.5 26.77-8.9L26.77-8.9Q26.77-12.9 27.97-16.98 29.17-21.05 31.79-23.83 34.42-26.6 38.32-26.6L38.32-26.6Q41.82-26.6 43.69-24.1 45.57-21.6 45.57-17.2L45.57-17.2Q45.57-13.2 44.37-9.1 43.17-5 40.57-2.23 37.97 0.55 34.07 0.55L34.07 0.55ZM34.12-1.45Q37.32-1.45 39.37-4.03 41.42-6.6 42.34-10.28 43.27-13.95 43.27-17.35L43.27-17.35Q43.27-20.95 41.99-22.83 40.72-24.7 38.27-24.7L38.27-24.7Q35.07-24.7 32.99-22.13 30.92-19.55 30.02-15.88 29.12-12.2 29.12-8.75L29.12-8.75Q29.12-5.15 30.39-3.3 31.67-1.45 34.12-1.45L34.12-1.45ZM61.08 0.55Q58.73 0.55 57.41-0.98 56.08-2.5 56.08-5.25L56.08-5.25Q56.08-6.35 56.18-6.95L56.18-6.95 58.88-26.1 61.13-26.1 58.43-6.85Q58.28-5.95 58.28-5.2L58.28-5.2Q58.28-3.3 59.08-2.35 59.88-1.4 61.33-1.4L61.33-1.4Q65.78-1.4 69.48-9.95L69.48-9.95 71.78-26.1 73.98-26.1 70.28 0 68.48 0 69.23-6.6Q67.63-3.3 65.68-1.38 63.73 0.55 61.08 0.55L61.08 0.55ZM96.1-26.6Q96.95-26.6 98.1-26.25L98.1-26.25 97.4-24.2Q96.5-24.5 95.7-24.5L95.7-24.5Q93.4-24.5 91.72-22.2 90.05-19.9 88.45-15.3L88.45-15.3 86.3 0 84.05 0 87.75-26.1 89.7-26.1 88.95-19.85Q90.25-23.15 91.95-24.88 93.65-26.6 96.1-26.6L96.1-26.6ZM132.23-35.15Q130.33-35.15 129.18-34.02 128.03-32.9 127.68-30.45L127.68-30.45 127.08-26.1 132.83-26.1 132.23-24.2 126.83-24.2 123.48-0.25Q123.03 2.9 122.18 4.75 121.33 6.6 120.03 7.7 118.73 8.8 116.48 10L116.48 10 115.88 8.35Q117.63 7.4 118.6 6.48 119.58 5.55 120.25 3.98 120.93 2.4 121.28-0.35L121.28-0.35 124.58-24.2 120.93-24.2 121.18-26.1 124.83-26.1 125.48-30.65Q125.93-33.7 127.68-35.38 129.43-37.05 132.13-37.05L132.13-37.05Q134.58-37.05 137.03-35.3L137.03-35.3 136.08-33.8Q134.98-34.5 134.1-34.83 133.23-35.15 132.23-35.15L132.23-35.15ZM142.29-26.1L144.54-26.1 140.84 0 138.59 0 142.29-26.1ZM144.49-33.75Q143.84-33.75 143.42-34.18 142.99-34.6 142.99-35.25L142.99-35.25Q142.99-36.05 143.52-36.58 144.04-37.1 144.84-37.1L144.84-37.1Q145.49-37.1 145.92-36.7 146.34-36.3 146.34-35.65L146.34-35.65Q146.34-34.85 145.82-34.3 145.29-33.75 144.49-33.75L144.49-33.75ZM167.76-26.6Q170.11-26.6 171.43-25.05 172.76-23.5 172.76-20.7L172.76-20.7Q172.76-19.85 172.61-18.85L172.61-18.85 169.96 0 167.71 0 170.36-18.75Q170.51-19.8 170.51-20.6L170.51-20.6Q170.51-22.65 169.71-23.68 168.91-24.7 167.41-24.7L167.41-24.7Q163.41-24.7 159.11-16.05L159.11-16.05 156.86 0 154.61 0 158.31-26.1 160.26-26.1 159.51-19.65Q161.36-23 163.33-24.8 165.31-26.6 167.76-26.6L167.76-26.6ZM195.32-26.6Q198.72-26.6 201.77-24.75L201.77-24.75 199.02-5.6Q198.82-4.35 198.82-3.25L198.82-3.25Q198.82-2.45 199.07-1.95 199.32-1.45 199.97-1.1L199.97-1.1 199.22 0.55Q197.97 0.05 197.35-0.8 196.72-1.65 196.72-3.2L196.72-3.2Q196.72-3.7 196.77-4L196.77-4Q193.82 0.55 189.82 0.55L189.82 0.55Q186.72 0.55 184.97-1.85 183.22-4.25 183.22-8.5L183.22-8.5Q183.22-12.8 184.5-16.98 185.77-21.15 188.5-23.88 191.22-26.6 195.32-26.6L195.32-26.6ZM195.27-24.75Q192.02-24.75 189.82-22.3 187.62-19.85 186.57-16.1 185.52-12.35 185.52-8.5L185.52-8.5Q185.52-5.05 186.7-3.25 187.87-1.45 190.12-1.45L190.12-1.45Q193.77-1.45 196.92-6.8L196.92-6.8 199.32-23.75Q197.42-24.75 195.27-24.75L195.27-24.75ZM225.09-26.6Q227.44-26.6 228.76-25.05 230.09-23.5 230.09-20.7L230.09-20.7Q230.09-19.85 229.94-18.85L229.94-18.85 227.29 0 225.04 0 227.69-18.75Q227.84-19.8 227.84-20.6L227.84-20.6Q227.84-22.65 227.04-23.68 226.24-24.7 224.74-24.7L224.74-24.7Q220.74-24.7 216.44-16.05L216.44-16.05 214.19 0 211.94 0 215.64-26.1 217.59-26.1 216.84-19.65Q218.69-23 220.66-24.8 222.64-26.6 225.09-26.6L225.09-26.6ZM252.2-26.6Q254-26.6 255.33-25.98 256.65-25.35 257.9-24L257.9-24 256.55-22.65Q255.55-23.65 254.55-24.15 253.55-24.65 252.15-24.65L252.15-24.65Q249-24.65 246.93-22.2 244.85-19.75 243.9-16.13 242.95-12.5 242.95-8.85L242.95-8.85Q242.95-5.2 244.28-3.35 245.6-1.5 248-1.5L248-1.5Q249.45-1.5 250.7-2.05 251.95-2.6 253.35-3.65L253.35-3.65 254.35-2.15Q251.15 0.55 247.9 0.55L247.9 0.55Q244.5 0.55 242.55-1.93 240.6-4.4 240.6-8.9L240.6-8.9Q240.6-13.05 241.85-17.13 243.1-21.2 245.73-23.9 248.35-26.6 252.2-26.6L252.2-26.6ZM268.72-26.1L270.97-26.1 267.27 0 265.02 0 268.72-26.1ZM270.92-33.75Q270.27-33.75 269.84-34.18 269.42-34.6 269.42-35.25L269.42-35.25Q269.42-36.05 269.94-36.58 270.47-37.1 271.27-37.1L271.27-37.1Q271.92-37.1 272.34-36.7 272.77-36.3 272.77-35.65L272.77-35.65Q272.77-34.85 272.24-34.3 271.72-33.75 270.92-33.75L270.92-33.75ZM292.88-26.6Q296.28-26.6 299.33-24.75L299.33-24.75 296.58-5.6Q296.38-4.35 296.38-3.25L296.38-3.25Q296.38-2.45 296.63-1.95 296.88-1.45 297.53-1.1L297.53-1.1 296.78 0.55Q295.53 0.05 294.91-0.8 294.28-1.65 294.28-3.2L294.28-3.2Q294.28-3.7 294.33-4L294.33-4Q291.38 0.55 287.38 0.55L287.38 0.55Q284.28 0.55 282.53-1.85 280.78-4.25 280.78-8.5L280.78-8.5Q280.78-12.8 282.06-16.98 283.33-21.15 286.06-23.88 288.78-26.6 292.88-26.6L292.88-26.6ZM292.83-24.75Q289.58-24.75 287.38-22.3 285.18-19.85 284.13-16.1 283.08-12.35 283.08-8.5L283.08-8.5Q283.08-5.05 284.26-3.25 285.43-1.45 287.68-1.45L287.68-1.45Q291.33-1.45 294.48-6.8L294.48-6.8 296.88-23.75Q294.98-24.75 292.83-24.75L292.83-24.75ZM316.7-37.05L312.05-3.8Q312-3.55 312-3.15L312-3.15Q312-1.45 313.45-1.45L313.45-1.45Q314.05-1.45 315-1.8L315-1.8 315.5-0.1Q314.2 0.55 312.95 0.55L312.95 0.55Q311.5 0.55 310.65-0.33 309.8-1.2 309.8-2.9L309.8-2.9Q309.8-3.5 309.85-3.85L309.85-3.85 314.45-36.75 316.7-37.05ZM341.08 10.15L346.18-26.1 348.18-26.1 347.83-22.5Q351.03-26.6 355.03-26.6L355.03-26.6Q358.03-26.6 359.65-24.38 361.28-22.15 361.28-18.05L361.28-18.05Q361.28-13.65 360.1-9.4 358.93-5.15 356.3-2.3 353.68 0.55 349.63 0.55L349.63 0.55Q347.28 0.55 344.83-0.6L344.83-0.6 343.33 9.85 341.08 10.15ZM349.68-1.45Q353.03-1.45 355.1-4.1 357.18-6.75 358.1-10.6 359.03-14.45 359.03-18.3L359.03-18.3Q359.03-21.5 357.93-23.08 356.83-24.65 354.73-24.65L354.73-24.65Q352.78-24.65 350.93-23.4 349.08-22.15 347.58-20.05L347.58-20.05 345.13-2.5Q347.43-1.45 349.68-1.45L349.68-1.45ZM382.89-26.6Q386.29-26.6 389.34-24.75L389.34-24.75 386.59-5.6Q386.39-4.35 386.39-3.25L386.39-3.25Q386.39-2.45 386.64-1.95 386.89-1.45 387.54-1.1L387.54-1.1 386.79 0.55Q385.54 0.05 384.92-0.8 384.29-1.65 384.29-3.2L384.29-3.2Q384.29-3.7 384.34-4L384.34-4Q381.39 0.55 377.39 0.55L377.39 0.55Q374.29 0.55 372.54-1.85 370.79-4.25 370.79-8.5L370.79-8.5Q370.79-12.8 372.07-16.98 373.34-21.15 376.07-23.88 378.79-26.6 382.89-26.6L382.89-26.6ZM382.84-24.75Q379.59-24.75 377.39-22.3 375.19-19.85 374.14-16.1 373.09-12.35 373.09-8.5L373.09-8.5Q373.09-5.05 374.27-3.25 375.44-1.45 377.69-1.45L377.69-1.45Q381.34-1.45 384.49-6.8L384.49-6.8 386.89-23.75Q384.99-24.75 382.84-24.75L382.84-24.75ZM411.56-26.6Q412.41-26.6 413.56-26.25L413.56-26.25 412.86-24.2Q411.96-24.5 411.16-24.5L411.16-24.5Q408.86-24.5 407.18-22.2 405.51-19.9 403.91-15.3L403.91-15.3 401.76 0 399.51 0 403.21-26.1 405.16-26.1 404.41-19.85Q405.71-23.15 407.41-24.88 409.11-26.6 411.56-26.6L411.56-26.6ZM425.47-24.2L422.82-5.5Q422.72-4.7 422.72-4.4L422.72-4.4Q422.72-2.9 423.4-2.18 424.07-1.45 425.27-1.45L425.27-1.45Q426.22-1.45 427.02-1.75 427.82-2.05 428.87-2.6L428.87-2.6 429.67-1.05Q427.42 0.55 425.02 0.55L425.02 0.55Q422.92 0.55 421.7-0.75 420.47-2.05 420.47-4.4L420.47-4.4Q420.47-4.7 420.57-5.6L420.57-5.6 423.22-24.2 419.62-24.2 419.92-26.1 423.52-26.1 424.82-32.5 426.67-32.7 425.72-26.1 431.27-26.1 430.72-24.2 425.47-24.2ZM451.89-26.6Q454.24-26.6 455.56-25.05 456.89-23.5 456.89-20.7L456.89-20.7Q456.89-19.85 456.74-18.85L456.74-18.85 454.09 0 451.84 0 454.49-18.75Q454.64-19.8 454.64-20.6L454.64-20.6Q454.64-22.65 453.84-23.68 453.04-24.7 451.54-24.7L451.54-24.7Q447.54-24.7 443.24-16.05L443.24-16.05 440.99 0 438.74 0 442.44-26.1 444.39-26.1 443.64-19.65Q445.49-23 447.46-24.8 449.44-26.6 451.89-26.6L451.89-26.6ZM485.4-20.75Q485.4-11.75 469.8-10.5L469.8-10.5Q469.75-9.95 469.75-8.9L469.75-8.9Q469.75-5.1 471.08-3.3 472.4-1.5 474.8-1.5L474.8-1.5Q476.45-1.5 477.9-2.13 479.35-2.75 481-4.05L481-4.05 482.05-2.55Q480.25-1 478.45-0.23 476.65 0.55 474.65 0.55L474.65 0.55Q471.2 0.55 469.3-1.9 467.4-4.35 467.4-8.85L467.4-8.85Q467.4-13.25 468.73-17.32 470.05-21.4 472.73-24 475.4-26.6 479.2-26.6L479.2-26.6Q482.15-26.6 483.78-25 485.4-23.4 485.4-20.75L485.4-20.75ZM479-24.7Q475.2-24.7 472.9-21.08 470.6-17.45 469.95-12.25L469.95-12.25Q476.55-12.85 479.85-14.9 483.15-16.95 483.15-20.7L483.15-20.7Q483.15-22.6 482.13-23.65 481.1-24.7 479-24.7L479-24.7ZM506.07-26.6Q506.92-26.6 508.07-26.25L508.07-26.25 507.37-24.2Q506.47-24.5 505.67-24.5L505.67-24.5Q503.37-24.5 501.7-22.2 500.02-19.9 498.42-15.3L498.42-15.3 496.27 0 494.02 0 497.72-26.1 499.67-26.1 498.92-19.85Q500.22-23.15 501.92-24.88 503.62-26.6 506.07-26.6L506.07-26.6ZM542.2-35.15Q540.3-35.15 539.15-34.02 538-32.9 537.65-30.45L537.65-30.45 537.05-26.1 542.8-26.1 542.2-24.2 536.8-24.2 533.45-0.25Q533 2.9 532.15 4.75 531.3 6.6 530 7.7 528.7 8.8 526.45 10L526.45 10 525.85 8.35Q527.6 7.4 528.58 6.48 529.55 5.55 530.23 3.98 530.9 2.4 531.25-0.35L531.25-0.35 534.55-24.2 530.9-24.2 531.15-26.1 534.8-26.1 535.45-30.65Q535.9-33.7 537.65-35.38 539.4-37.05 542.1-37.05L542.1-37.05Q544.55-37.05 547-35.3L547-35.3 546.05-33.8Q544.95-34.5 544.08-34.83 543.2-35.15 542.2-35.15L542.2-35.15ZM555.67 0.55Q552.17 0.55 550.27-1.98 548.37-4.5 548.37-8.9L548.37-8.9Q548.37-12.9 549.57-16.98 550.77-21.05 553.39-23.83 556.02-26.6 559.92-26.6L559.92-26.6Q563.42-26.6 565.29-24.1 567.17-21.6 567.17-17.2L567.17-17.2Q567.17-13.2 565.97-9.1 564.77-5 562.17-2.23 559.57 0.55 555.67 0.55L555.67 0.55ZM555.72-1.45Q558.92-1.45 560.97-4.03 563.02-6.6 563.94-10.28 564.87-13.95 564.87-17.35L564.87-17.35Q564.87-20.95 563.59-22.83 562.32-24.7 559.87-24.7L559.87-24.7Q556.67-24.7 554.59-22.13 552.52-19.55 551.62-15.88 550.72-12.2 550.72-8.75L550.72-8.75Q550.72-5.15 551.99-3.3 553.27-1.45 555.72-1.45L555.72-1.45ZM589.03-26.6Q589.88-26.6 591.03-26.25L591.03-26.25 590.33-24.2Q589.43-24.5 588.63-24.5L588.63-24.5Q586.33-24.5 584.66-22.2 582.98-19.9 581.38-15.3L581.38-15.3 579.23 0 576.98 0 580.68-26.1 582.63-26.1 581.88-19.85Q583.18-23.15 584.88-24.88 586.58-26.6 589.03-26.6L589.03-26.6ZM620.76-37.05L616.11-3.8Q616.06-3.55 616.06-3.15L616.06-3.15Q616.06-1.45 617.51-1.45L617.51-1.45Q618.11-1.45 619.06-1.8L619.06-1.8 619.56-0.1Q618.26 0.55 617.01 0.55L617.01 0.55Q615.56 0.55 614.71-0.33 613.86-1.2 613.86-2.9L613.86-2.9Q613.86-3.5 613.91-3.85L613.91-3.85 618.51-36.75 620.76-37.05ZM633.88-26.1L636.13-26.1 632.43 0 630.18 0 633.88-26.1ZM636.08-33.75Q635.43-33.75 635-34.18 634.58-34.6 634.58-35.25L634.58-35.25Q634.58-36.05 635.1-36.58 635.63-37.1 636.43-37.1L636.43-37.1Q637.08-37.1 637.5-36.7 637.93-36.3 637.93-35.65L637.93-35.65Q637.93-34.85 637.4-34.3 636.88-33.75 636.08-33.75L636.08-33.75ZM657.79-35.15Q655.89-35.15 654.74-34.02 653.59-32.9 653.24-30.45L653.24-30.45 652.64-26.1 658.39-26.1 657.79-24.2 652.39-24.2 649.04-0.25Q648.59 2.9 647.74 4.75 646.89 6.6 645.59 7.7 644.29 8.8 642.04 10L642.04 10 641.44 8.35Q643.19 7.4 644.17 6.48 645.14 5.55 645.82 3.98 646.49 2.4 646.84-0.35L646.84-0.35 650.14-24.2 646.49-24.2 646.74-26.1 650.39-26.1 651.04-30.65Q651.49-33.7 653.24-35.38 654.99-37.05 657.69-37.05L657.69-37.05Q660.14-37.05 662.59-35.3L662.59-35.3 661.64-33.8Q660.54-34.5 659.67-34.83 658.79-35.15 657.79-35.15L657.79-35.15ZM681.96-20.75Q681.96-11.75 666.36-10.5L666.36-10.5Q666.31-9.95 666.31-8.9L666.31-8.9Q666.31-5.1 667.63-3.3 668.96-1.5 671.36-1.5L671.36-1.5Q673.01-1.5 674.46-2.13 675.91-2.75 677.56-4.05L677.56-4.05 678.61-2.55Q676.81-1 675.01-0.23 673.21 0.55 671.21 0.55L671.21 0.55Q667.76 0.55 665.86-1.9 663.96-4.35 663.96-8.85L663.96-8.85Q663.96-13.25 665.28-17.32 666.61-21.4 669.28-24 671.96-26.6 675.76-26.6L675.76-26.6Q678.71-26.6 680.33-25 681.96-23.4 681.96-20.75L681.96-20.75ZM675.56-24.7Q671.76-24.7 669.46-21.08 667.16-17.45 666.51-12.25L666.51-12.25Q673.11-12.85 676.41-14.9 679.71-16.95 679.71-20.7L679.71-20.7Q679.71-22.6 678.68-23.65 677.66-24.7 675.56-24.7L675.56-24.7Z" opacity="1" transform="matrix(1,0,0,1,0,0)" fill="#5dab25" class="slogan-text-1" data-fill-palette-color="secondary" id="text-1"></path></svg></g></svg></g></svg></g></svg></g><g></g></svg></g><defs></defs></svg><rect width="395.52" height="135.8541719107563" fill="none" stroke="none" visibility="hidden"></rect></g></svg></g></svg>