<svg xmlns="http://www.w3.org/2000/svg" version="1.1" xmlns:xlink="http://www.w3.org/1999/xlink" xmlns:svgjs="http://svgjs.dev/svgjs" width="128" height="128" viewBox="0 0 128 128"><g transform="matrix(0.8046875,0,0,0.8046875,12.333917697982223,35.5280910669439)"><svg viewBox="0 0 155 86" data-background-color="#06184f" preserveAspectRatio="xMidYMid meet" height="71" width="128" xmlns="http://www.w3.org/2000/svg" xmlns:xlink="http://www.w3.org/1999/xlink"><g id="tight-bounds" transform="matrix(1,0,0,1,0.24992967779374453,-0.1422434657347793)"><svg viewBox="0 0 154.5 86.28448693146956" height="86.28448693146956" width="154.5"><g><svg viewBox="0 0 154.5 86.28448693146956" height="86.28448693146956" width="154.5"><g><svg viewBox="0 0 154.5 86.28448693146956" height="86.28448693146956" width="154.5"><g id="textblocktransform"><svg viewBox="0 0 154.5 86.28448693146956" height="86.28448693146956" width="154.5" id="textblock"><g><svg viewBox="0 0 154.5 86.28448693146956" height="86.28448693146956" width="154.5"><g transform="matrix(1,0,0,1,0,0)"><svg width="154.5" viewBox="1.51 -28.54 52.11095256236695 29.099999999999998" height="86.28448693146956" data-palette-color="#367d94"><g transform="matrix(1,0,0,1,0,0)"><g><svg width="10.216672562366945" viewBox="1.78 -36.36 74.21 36.36" height="5.005680719552035" data-palette-color="#367d94" id="scriptelement" x="41.288336281183476" y="-23.818560359776015"><path d="M12.91-30.02L1.78-30.02 1.78-36.36 31.64-36.36 31.64-30.02 20.51-30.02 20.51 0 12.91 0 12.91-30.02ZM36.57 0L36.57-36.36 46.06-36.36 56.07-11.93 56.5-11.93 66.51-36.36 75.99-36.36 75.99 0 68.53 0 68.53-23.67 68.23-23.67 58.82-0.18 53.74-0.18 44.33-23.76 44.03-23.76 44.03 0 36.57 0Z" opacity="1" transform="matrix(1,0,0,1,0,0)" fill="#367d94" class="undefined-123" data-fill-palette-color="primary" id="tk-123"></path></svg></g></g><path d="M39.172-21.316C39.172-25.306 42.407-28.54 46.397-28.54 50.387-28.54 53.621-25.306 53.621-21.316 53.621-17.326 50.387-14.091 46.397-14.091 42.407-14.091 39.172-17.326 39.172-21.316ZM46.397-14.491C50.166-14.491 53.221-17.547 53.221-21.316 53.221-25.085 50.166-28.14 46.397-28.14 42.628-28.14 39.572-25.085 39.572-21.316 39.572-17.547 42.628-14.491 46.397-14.491Z" fill="#367d94" id="scriptcircle" data-fill-palette-color="primary"></path><path d="M18.9 0.56L18.9 0.56Q12.87 0.56 9.73-3.13 6.59-6.81 6.59-13.84L6.59-13.84 6.59-24.34Q6.59-25.76 6.23-26.46 5.86-27.17 4.77-27.44 3.69-27.71 1.51-27.81L1.51-27.81 1.51-28.54Q2.51-28.49 4.25-28.45 5.98-28.42 8.42-28.42L8.42-28.42Q11.01-28.42 12.81-28.45 14.6-28.49 15.5-28.54L15.5-28.54 15.5-27.81Q13.31-27.71 12.19-27.45 11.08-27.2 10.72-26.5 10.35-25.81 10.35-24.34L10.35-24.34 10.35-12.84Q10.35-7.3 12.73-3.99 15.11-0.68 19.68-0.68L19.68-0.68Q24.85-0.68 27.58-4.05 30.3-7.42 30.3-13.72L30.3-13.72 30.3-23.88Q30.3-25.44 29.83-26.25 29.37-27.05 28.21-27.38 27.05-27.71 24.93-27.81L24.93-27.81 24.93-28.54Q25.66-28.52 27.08-28.47 28.49-28.42 30.57-28.42L30.57-28.42Q32.74-28.42 34.12-28.47 35.5-28.52 36.18-28.54L36.18-28.54 36.18-27.81Q34.11-27.71 33-27.39 31.88-27.08 31.48-26.29 31.08-25.51 31.08-24.02L31.08-24.02 31.08-14.09Q31.08-7.01 28.02-3.22 24.95 0.56 18.9 0.56Z" opacity="1" transform="matrix(1,0,0,1,0,0)" fill="#6c87bd" class="wordmark-text-0" data-fill-palette-color="primary" id="text-0"></path></svg></g></svg></g></svg></g></svg></g><g></g></svg></g><defs></defs></svg><rect width="154.5" height="86.28448693146956" fill="none" stroke="none" visibility="hidden"></rect></g></svg></g></svg>